<svg xmlns="http://www.w3.org/2000/svg" xmlns:xlink="http://www.w3.org/1999/xlink" xmlns:svgjs="http://svgjs.com/svgjs" version="1.1" width="512" height="512" x="0" y="0" viewBox="0 0 14 14" style="enable-background:new 0 0 512 512">
	<path style="" d="M14,4c0,0.552-0.447,1-1,1H1C0.447,5,0,4.552,0,4V2c0-0.552,0.447-1,1-1h12c0.553,0,1,0.448,1,1V4z" fill="#327c9c"/>
	<path style="" d="M14,12c0,0.553-0.447,1-1,1H1c-0.553,0-1-0.447-1-1v-2c0-0.553,0.447-1,1-1h12c0.553,0,1,0.447,1,1   V12z" fill="#327c9c" />
</svg>
